<svg width="22" height="23" viewBox="0 0 22 23" fill="none" xmlns="http://www.w3.org/2000/svg">
<path d="M15.77 13.39L17.66 5.65H15.2L14.72 7.27C14.38 6.49 13.87 5.95 13.19 5.65C12.51 5.33 11.85 5.17 11.21 5.17C10.23 5.17 9.33 5.39 8.51 5.83C7.71 6.27 7.02 6.85 6.44 7.57C5.88 8.29 5.44 9.11 5.12 10.03C4.82 10.95 4.67 11.88 4.67 12.82C4.67 13.52 4.79 14.18 5.03 14.8C5.29 15.42 5.63 15.97 6.05 16.45C6.49 16.91 6.99 17.28 7.55 17.56C8.13 17.82 8.74 17.95 9.38 17.95C10.02 17.95 10.63 17.81 11.21 17.53C11.79 17.25 12.26 16.81 12.62 16.21H12.68C12.72 16.71 12.93 17.12 13.31 17.44C13.71 17.76 14.23 17.92 14.87 17.92C15.35 17.92 15.98 17.76 16.76 17.44C17.56 17.1 18.34 16.58 19.1 15.88C19.88 15.18 20.54 14.28 21.08 13.18C21.64 12.08 21.92 10.76 21.92 9.22C21.92 7.84 21.63 6.59 21.05 5.47C20.47 4.33 19.7 3.37 18.74 2.59C17.78 1.79 16.67 1.17 15.41 0.729998C14.15 0.289999 12.84 0.0699998 11.48 0.0699998C9.92 0.0699998 8.45 0.36 7.07 0.939999C5.69 1.52 4.48 2.31 3.44 3.31C2.4 4.31 1.58 5.5 0.98 6.88C0.38 8.24 0.0800001 9.71 0.0800001 11.29C0.0800001 12.89 0.38 14.38 0.98 15.76C1.58 17.12 2.4 18.3 3.44 19.3C4.5 20.3 5.73 21.08 7.13 21.64C8.53 22.2 10.03 22.48 11.63 22.48C13.51 22.48 15.25 22.07 16.85 21.25C18.45 20.41 19.76 19.21 20.78 17.65H18.26C17.48 18.43 16.52 19.04 15.38 19.48C14.26 19.9 13.07 20.11 11.81 20.11C10.53 20.11 9.34 19.9 8.24 19.48C7.16 19.06 6.23 18.47 5.45 17.71C4.67 16.93 4.06 16.01 3.62 14.95C3.18 13.87 2.96 12.67 2.96 11.35C2.96 10.09 3.16 8.92 3.56 7.84C3.96 6.74 4.53 5.8 5.27 5.02C6.01 4.22 6.9 3.6 7.94 3.16C9 2.7 10.17 2.47 11.45 2.47C12.59 2.47 13.65 2.63 14.63 2.95C15.63 3.27 16.49 3.75 17.21 4.39C17.95 5.01 18.53 5.78 18.95 6.7C19.37 7.6 19.58 8.65 19.58 9.85C19.58 10.65 19.47 11.39 19.25 12.07C19.05 12.75 18.78 13.34 18.44 13.84C18.12 14.32 17.74 14.7 17.3 14.98C16.88 15.24 16.46 15.37 16.04 15.37C15.86 15.37 15.73 15.31 15.65 15.19C15.57 15.05 15.53 14.88 15.53 14.68C15.53 14.48 15.55 14.27 15.59 14.05C15.65 13.81 15.71 13.59 15.77 13.39ZM7.73 12.43C7.73 11.93 7.82 11.42 8 10.9C8.18 10.38 8.43 9.91 8.75 9.49C9.09 9.05 9.49 8.7 9.95 8.44C10.41 8.16 10.91 8.02 11.45 8.02C12.09 8.02 12.63 8.26 13.07 8.74C13.53 9.22 13.76 9.83 13.76 10.57C13.76 11.09 13.67 11.62 13.49 12.16C13.31 12.7 13.05 13.19 12.71 13.63C12.39 14.05 12 14.4 11.54 14.68C11.1 14.96 10.61 15.1 10.07 15.1C9.37 15.1 8.8 14.86 8.36 14.38C7.94 13.88 7.73 13.23 7.73 12.43Z" fill="#CB6051"/>
</svg>
