<svg width="467" height="122" viewBox="0 0 467 122" fill="none" xmlns="http://www.w3.org/2000/svg">
<path d="M23.5008 0H25.2511C39.2504 0 43.126 5.74812 43.126 12.7745V14.0519C43.126 17.8198 41.3133 21.0774 35.6885 22.6104C42.2513 24.1434 44.3756 27.5283 44.3756 31.2962V32.5736C44.3756 39.6 40.2507 45.3481 25.2511 45.3481H23.5008C15.9377 45.3481 7.75021 44.901 0.625366 44.0708V1.27736C7.75021 0.447169 15.9377 0 23.5008 0ZM11.8751 10.7943V17.884H23.0002C33.1259 17.884 33.1259 16.2227 33.1259 14.0519C33.1259 11.9434 32.8132 10.2189 23.7502 10.2189C20.6879 10.2189 16 10.4122 11.8751 10.7943ZM11.8751 28.1028V34.5538C16 34.9368 20.6218 35.1293 23.9381 35.1293C33.9382 35.1293 34.3755 33.4047 34.3755 31.2962C34.3755 29.5085 34.3755 28.1028 23.0002 28.1028H11.8751Z" fill="#E6DDD4"/>
<path d="M100.5 11.497H71.6875V17.8838H94.2503V28.1027H71.6875V33.8508H100.5V44.0706H60.4368V1.27721H100.5V11.497Z" fill="#E6DDD4"/>
<path d="M115.875 44.0706V1.27721H127.125V33.8508H155.938V44.0706H115.875Z" fill="#E6DDD4"/>
<path d="M171.311 44.0706V1.27721H182.56V33.8508H211.373V44.0706H171.311Z" fill="#E6DDD4"/>
<path d="M295.687 22.6104V43.3038C289.812 44.5812 283.437 45.3491 277.063 45.3491H274.813C255.687 45.3491 250.312 35.8962 250.312 24.3386V21.0104C250.312 9.45005 255.687 0 274.813 0H277.063C282.918 0.00899276 288.751 0.716519 294.438 2.10755V12.5198C288.312 10.7953 281.375 10.1566 276.75 10.1566C261.813 10.1566 261.813 15.3934 261.813 22.6755C261.813 29.9575 261.813 35.2575 276.75 35.2575C278.937 35.2575 281.562 35.1302 284.438 34.8745V22.6104H295.687Z" fill="#E6DDD4"/>
<path d="M344.624 44.0708L336.25 30.6576C331.812 30.6576 327.624 30.6576 323.625 30.0189V44.0708H312.374V1.27736C319.499 0.447169 327.687 0 335.25 0H337C351 0 354.875 6.32172 354.875 14.0519V16.6066C354.875 21.9717 353.124 26.634 347.75 28.9972L355.5 41.5161V44.0708H344.624ZM323.625 10.7943V19.8642C327.499 20.3745 331.312 20.4387 333.437 20.4387C343.437 20.4387 343.625 18.65 343.625 14.6264C343.625 12.3274 343.563 10.2189 335.374 10.2189C332.5 10.2189 327.75 10.4122 323.625 10.7943Z" fill="#E6DDD4"/>
<path d="M369.436 44.0706V41.5159L388.061 1.27721H399.312L417.937 41.5159V44.0706H407.812L404.183 35.7678H383.124L379.561 44.0706H369.436ZM400.062 26.1867L393.687 11.5602L387.311 26.1867H400.062Z" fill="#E6DDD4"/>
<path d="M438.937 28.1687L422.56 3.83379V1.27721H433.623L444.56 19.0338L455.56 1.27721H466.561V3.83193L450.188 28.1687V44.0706H438.937V28.1687Z" fill="#E6DDD4"/>
<path d="M30.3129 108.069C30.3129 105.067 27.6879 104.62 20.4375 104.428C14.0626 104.237 0.191683 103.79 0.191683 91.3349V90.5047C0.191683 83.1603 4.81626 76.6443 20.6915 76.6443H22.9415C28.4468 76.6485 33.9289 77.3571 39.254 78.7528V89.2915C33.1918 87.8217 27.2506 86.9283 21.1289 86.9283C12.0667 86.9283 11.4414 89.0358 11.4414 90.5047C11.4414 93.5726 14.192 94.0179 21.2545 94.2094C27.192 94.3368 41.5673 94.7839 41.5673 107.366V108.197C41.5673 115.478 36.9418 121.992 21.0032 121.992H18.7505C12.1877 121.992 5.93752 121.226 0 119.947V109.219C6.74984 110.752 14.3129 111.774 20.6878 111.774C29.6252 111.774 30.3129 109.666 30.3129 108.069Z" fill="#E6DDD4"/>
<path d="M97.6874 88.1418H68.8745V94.5286H91.4372V104.748H68.8745V110.497H97.6874V120.715H57.6248V77.922H97.6874V88.1418Z" fill="#E6DDD4"/>
<path d="M145.312 120.715L136.938 107.303C132.5 107.303 128.312 107.303 124.313 106.664V120.715H113.061V77.9217C120.186 77.0915 128.374 76.6443 135.937 76.6443H137.687C151.687 76.6443 155.562 82.9661 155.562 90.6962V93.251C155.562 98.6161 153.812 103.278 148.437 105.642L156.188 118.16V120.715H145.312ZM124.313 87.4387V96.5085C128.187 97.0198 132 97.083 134.125 97.083C144.125 97.083 144.313 95.2953 144.313 91.2708C144.313 88.9717 144.251 86.8641 136.062 86.8641C133.188 86.8641 128.438 87.0557 124.313 87.4387Z" fill="#E6DDD4"/>
<path d="M216.876 77.922V80.4776L198.25 120.715H187.001L168.375 80.4776V77.922H178.5L192.625 110.497L206.75 77.922H216.876Z" fill="#E6DDD4"/>
<path d="M242.625 77.922V120.715H231.375V77.922H242.625Z" fill="#E6DDD4"/>
<path d="M258.684 97.6586C258.684 86.0973 263.623 76.6481 281.31 76.6481H283.56C289.004 76.6563 294.423 77.365 299.685 78.7566V89.1689C293.935 87.4443 287.495 86.8057 283.248 86.8057C270.184 86.8057 270.184 92.0434 270.184 99.3245C270.184 106.606 270.184 111.907 283.248 111.907C287.497 111.907 293.935 111.205 299.685 109.48V119.955C294.56 121.232 289.185 122 283.56 122H281.31C263.623 122 258.684 112.547 258.684 100.99V97.6586Z" fill="#E6DDD4"/>
<path d="M354.563 88.1418H325.75V94.5286H348.313V104.748H325.75V110.497H354.563V120.715H314.5V77.922H354.563V88.1418Z" fill="#E6DDD4"/>
</svg>
