<svg width="27" height="27" viewBox="0 0 27 27" fill="none" xmlns="http://www.w3.org/2000/svg">
<path d="M13.25 0C5.94158 0 0 5.94158 0 13.25C0 20.5584 5.94158 26.5 13.25 26.5C20.5584 26.5 26.5 20.5584 26.5 13.25C26.5 5.94158 20.5584 0 13.25 0ZM6.77842 22.2321L7.22474 20.2237C7.55947 18.6895 8.89842 17.6295 10.4605 17.6295H13.25H16.0116C17.5737 17.6295 18.9126 18.6895 19.2474 20.2237L19.6937 22.2321C17.8805 23.5432 15.6489 24.3242 13.2221 24.3242C10.8511 24.3242 8.61947 23.5432 6.77842 22.2321ZM16.3184 12.3853C16.3184 14.0868 14.9237 15.4537 13.25 15.4537C11.5484 15.4537 10.1816 14.0589 10.1816 12.3853V10.6558C10.1816 8.95421 11.5763 7.58737 13.25 7.58737C14.9516 7.58737 16.3184 8.98211 16.3184 10.6558V12.3853ZM21.5626 20.5584L21.3674 19.7216C20.8932 17.6574 19.3311 16.0953 17.3784 15.6211C18.0758 14.7284 18.4942 13.5847 18.4942 12.3853V10.6558C18.4942 7.75474 16.1232 5.41158 13.25 5.41158C10.3489 5.41158 8.00579 7.78263 8.00579 10.6558V12.3853C8.00579 13.6126 8.42421 14.7284 9.12158 15.6211C7.14105 16.1232 5.57895 17.6574 5.13263 19.7216L4.93737 20.5584C3.2079 18.6058 2.17579 16.0395 2.17579 13.25C2.17579 7.14105 7.14105 2.17579 13.25 2.17579C19.3589 2.17579 24.3242 7.14105 24.3242 13.25C24.3242 16.0395 23.2921 18.6058 21.5626 20.5584Z" fill="#CB6051"/>
</svg>
