<svg width="718" height="536" viewBox="0 0 718 536" fill="none" xmlns="http://www.w3.org/2000/svg">
<g opacity="0.2">
<rect x="554.545" y="1.23267" width="183.955" height="266.434" rx="91.9773" stroke="white"/>
<rect x="184.455" y="535.101" width="183.955" height="266.434" rx="91.9773" transform="rotate(-180 184.455 535.101)" stroke="white"/>
<rect x="185.67" y="1.23267" width="183.955" height="266.434" rx="91.9773" stroke="white"/>
<rect x="553.33" y="535.101" width="183.955" height="266.434" rx="91.9773" transform="rotate(-180 553.33 535.101)" stroke="white"/>
<rect x="370.108" y="1.23267" width="183.955" height="266.434" rx="91.9773" stroke="white"/>
<rect x="368.892" y="535.101" width="183.955" height="266.434" rx="91.9773" transform="rotate(-180 368.892 535.101)" stroke="white"/>
<rect x="1.2327" y="0.5" width="183.955" height="266.434" rx="91.9773" stroke="white"/>
<rect x="737.767" y="535.101" width="183.955" height="266.434" rx="91.9773" transform="rotate(-180 737.767 535.101)" stroke="white"/>
<rect x="554.545" y="84.9622" width="183.955" height="182.705" rx="91.3524" stroke="white"/>
<rect x="184.455" y="451.372" width="183.955" height="182.705" rx="91.3524" transform="rotate(-180 184.455 451.372)" stroke="white"/>
<rect x="185.67" y="84.9622" width="183.955" height="182.705" rx="91.3524" stroke="white"/>
<rect x="553.33" y="451.372" width="183.955" height="182.705" rx="91.3524" transform="rotate(-180 553.33 451.372)" stroke="white"/>
<line x1="737.093" y1="176.19" x2="1.02356" y2="176.19" stroke="white"/>
<line x1="8.74228e-08" y1="360.144" x2="736.069" y2="360.144" stroke="white"/>
</g>
</svg>
