<svg width="38" height="38" viewBox="0 0 38 38" fill="none" xmlns="http://www.w3.org/2000/svg">
<path d="M22.6367 19C22.6367 21.0085 21.0085 22.6367 19 22.6367C16.9915 22.6367 15.3633 21.0085 15.3633 19C15.3633 16.9915 16.9915 15.3633 19 15.3633C21.0085 15.3633 22.6367 16.9915 22.6367 19Z" fill="#A7A18B"/>
<path d="M27.5051 12.5656C27.3302 12.0919 27.0513 11.6631 26.689 11.3111C26.337 10.9487 25.9085 10.6698 25.4345 10.495C25.0501 10.3457 24.4725 10.168 23.4088 10.1196C22.2581 10.0671 21.9131 10.0558 19.0001 10.0558C16.0867 10.0558 15.7417 10.0668 14.5913 10.1193C13.5276 10.168 12.9498 10.3457 12.5656 10.495C12.0916 10.6698 11.6628 10.9487 11.3112 11.3111C10.9488 11.6631 10.6699 12.0916 10.4948 12.5656C10.3455 12.95 10.1677 13.5278 10.1193 14.5915C10.0668 15.7419 10.0555 16.0869 10.0555 19.0003C10.0555 21.9134 10.0668 22.2584 10.1193 23.4091C10.1677 24.4728 10.3455 25.0503 10.4948 25.4347C10.6699 25.9087 10.9485 26.3372 11.3109 26.6892C11.6628 27.0516 12.0913 27.3305 12.5654 27.5053C12.9498 27.6549 13.5276 27.8326 14.5913 27.881C15.7417 27.9335 16.0864 27.9445 18.9998 27.9445C21.9134 27.9445 22.2584 27.9335 23.4085 27.881C24.4722 27.8326 25.0501 27.6549 25.4345 27.5053C26.386 27.1383 27.138 26.3862 27.5051 25.4347C27.6544 25.0503 27.8321 24.4728 27.8808 23.4091C27.9333 22.2584 27.9443 21.9134 27.9443 19.0003C27.9443 16.0869 27.9333 15.7419 27.8808 14.5915C27.8324 13.5278 27.6547 12.95 27.5051 12.5656ZM19.0001 24.6024C15.9058 24.6024 13.3974 22.0943 13.3974 19C13.3974 15.9057 15.9058 13.3976 19.0001 13.3976C22.0941 13.3976 24.6024 15.9057 24.6024 19C24.6024 22.0943 22.0941 24.6024 19.0001 24.6024ZM24.8239 14.4854C24.1009 14.4854 23.5146 13.8992 23.5146 13.1761C23.5146 12.4531 24.1009 11.8669 24.8239 11.8669C25.547 11.8669 26.1332 12.4531 26.1332 13.1761C26.1329 13.8992 25.547 14.4854 24.8239 14.4854Z" fill="#A7A18B"/>
<path d="M19 0C8.50819 0 0 8.50819 0 19C0 29.4918 8.50819 38 19 38C29.4918 38 38 29.4918 38 19C38 8.50819 29.4918 0 19 0ZM29.8443 23.4981C29.7916 24.6595 29.6069 25.4524 29.3373 26.1465C28.7705 27.612 27.612 28.7705 26.1465 29.3373C25.4527 29.6069 24.6595 29.7913 23.4984 29.8443C22.3349 29.8974 21.9632 29.9102 19.0003 29.9102C16.037 29.9102 15.6657 29.8974 14.5019 29.8443C13.3408 29.7913 12.5476 29.6069 11.8538 29.3373C11.1256 29.0633 10.4663 28.6339 9.92125 28.0788C9.36635 27.534 8.93698 26.8744 8.66301 26.1465C8.39339 25.4527 8.20871 24.6595 8.15594 23.4984C8.10231 22.3346 8.08984 21.963 8.08984 19C8.08984 16.037 8.10231 15.6654 8.15565 14.5019C8.20842 13.3405 8.39281 12.5476 8.66243 11.8535C8.9364 11.1256 9.36606 10.466 9.92125 9.92125C10.466 9.36606 11.1256 8.93669 11.8535 8.66272C12.5476 8.3931 13.3405 8.20871 14.5019 8.15565C15.6654 8.1026 16.037 8.08984 19 8.08984C21.963 8.08984 22.3346 8.1026 23.4981 8.15594C24.6595 8.20871 25.4524 8.3931 26.1465 8.66243C26.8744 8.9364 27.534 9.36606 28.079 9.92125C28.6339 10.4663 29.0636 11.1256 29.3373 11.8535C29.6072 12.5476 29.7916 13.3405 29.8446 14.5019C29.8977 15.6654 29.9102 16.037 29.9102 19C29.9102 21.963 29.8977 22.3346 29.8443 23.4981Z" fill="#A7A18B"/>
</svg>
