<svg width="75" height="95" viewBox="0 0 75 95" fill="none" xmlns="http://www.w3.org/2000/svg">
<g opacity="0.2">
<path d="M66.855 1.58333C68.59 1.58501 70.2536 2.26805 71.4808 3.48265C72.7079 4.69724 73.3985 6.34422 73.4011 8.06233V86.9377C73.3985 88.6558 72.7079 90.3028 71.4808 91.5173C70.2536 92.7319 68.59 93.415 66.855 93.4167H8.14182C6.40732 93.4142 4.74459 92.7307 3.51811 91.5162C2.29163 90.3017 1.60148 88.6552 1.59894 86.9377V8.06233C1.60148 6.34477 2.29163 4.69827 3.51811 3.48376C4.74459 2.26926 6.40732 1.58585 8.14182 1.58333H66.855ZM66.855 6.21948e-07H8.14182C5.98247 6.21948e-07 3.91157 0.849423 2.38468 2.3614C0.857796 3.87338 0 5.92407 0 8.06233L0 86.9377C0 89.0759 0.857796 91.1266 2.38468 92.6386C3.91157 94.1506 5.98247 95 8.14182 95H66.855C67.9245 95.0004 68.9835 94.7922 69.9717 94.3872C70.9599 93.9822 71.8578 93.3884 72.6142 92.6397C73.3706 91.891 73.9706 91.0021 74.3799 90.0237C74.7893 89.0453 75 87.9967 75 86.9377V8.06233C75 7.00331 74.7893 5.95465 74.3799 4.97628C73.9706 3.99791 73.3706 3.10898 72.6142 2.36028C71.8578 1.61159 70.9599 1.01778 69.9717 0.6128C68.9835 0.207816 67.9245 -0.000415335 66.855 6.21948e-07Z" fill="#E5DCD3"/>
<path d="M37.4984 86.1682C37.8946 86.1675 38.2821 86.2834 38.6118 86.5009C38.9415 86.7185 39.1986 87.0281 39.3505 87.3904C39.5024 87.7528 39.5423 88.1516 39.4652 88.5365C39.388 88.9213 39.1973 89.2748 38.9171 89.5522C38.637 89.8296 38.28 90.0185 37.8914 90.0949C37.5027 90.1713 37.1 90.1318 36.734 89.9813C36.3681 89.8309 36.0555 89.5763 35.8358 89.2499C35.616 88.9234 35.4991 88.5397 35.4997 88.1473C35.5006 87.6227 35.7114 87.1198 36.0861 86.7488C36.4607 86.3778 36.9686 86.169 37.4984 86.1682ZM37.4984 84.5848C36.7861 84.5848 36.0898 84.7941 35.4976 85.186C34.9053 85.5779 34.4438 86.135 34.1714 86.7867C33.8989 87.4384 33.8278 88.1555 33.967 88.8473C34.1062 89.5391 34.4495 90.1744 34.9534 90.6729C35.4573 91.1715 36.0992 91.5108 36.7979 91.648C37.4966 91.7853 38.2207 91.7142 38.8786 91.4438C39.5365 91.1735 40.0986 90.716 40.4939 90.1292C40.8892 89.5424 41.0998 88.8527 41.0992 88.1473C41.0992 87.6792 41.0061 87.2157 40.8251 86.7833C40.6441 86.3509 40.3788 85.958 40.0444 85.6272C39.71 85.2963 39.313 85.034 38.8761 84.8551C38.4393 84.6763 37.9711 84.5844 37.4984 84.5848Z" fill="#E5DCD3"/>
<path d="M0.89296 6.59297L6.63636 0.90564H6.18226L0.89296 6.14647V6.59297Z" fill="#E5DCD3"/>
<path d="M0.89296 8.96797L9.03478 0.90564H8.58068L0.89296 8.52147V8.96797Z" fill="#E5DCD3"/>
<path d="M0.89296 11.343L11.43 0.90564H10.9791L0.89296 10.8965V11.343Z" fill="#E5DCD3"/>
<path d="M0.89296 13.718L13.8284 0.90564H13.3775L0.89296 13.2715V13.718Z" fill="#E5DCD3"/>
<path d="M0.89296 16.093L16.2268 0.90564H15.7759L0.89296 15.6465V16.093Z" fill="#E5DCD3"/>
<path d="M0.89296 18.468L18.6252 0.90564H18.1743L0.89296 18.0215V18.468Z" fill="#E5DCD3"/>
<path d="M0.89296 20.843L21.0268 0.90564H20.5727L0.89296 20.3965V20.843Z" fill="#E5DCD3"/>
<path d="M0.89296 23.218L23.4253 0.90564H22.9712L0.89296 22.7715V23.218Z" fill="#E5DCD3"/>
<path d="M0.89296 25.593L25.8237 0.90564H25.3696L0.89296 25.1465V25.593Z" fill="#E5DCD3"/>
<path d="M0.89296 27.968L28.2221 0.90564H27.768L0.89296 27.5215V27.968Z" fill="#E5DCD3"/>
<path d="M0.89296 30.343L30.6205 0.90564H30.1664L0.89296 29.8965V30.343Z" fill="#E5DCD3"/>
<path d="M0.89296 32.718L33.0189 0.90564H32.5648L0.89296 32.2715V32.718Z" fill="#E5DCD3"/>
<path d="M0.89296 35.093L35.4173 0.90564H34.9632L0.89296 34.6465V35.093Z" fill="#E5DCD3"/>
<path d="M0.89296 37.468L37.8157 0.90564H37.3616L0.89296 37.0215V37.468Z" fill="#E5DCD3"/>
<path d="M0.89296 39.843L40.2142 0.90564H39.7601L0.89296 39.3965V39.843Z" fill="#E5DCD3"/>
<path d="M0.89296 42.218L42.6126 0.90564H42.1585L0.89296 41.7715V42.218Z" fill="#E5DCD3"/>
<path d="M0.89296 44.593L45.011 0.90564H44.5569L0.89296 44.1465V44.593Z" fill="#E5DCD3"/>
<path d="M0.89296 46.968L47.4094 0.90564H46.9553L0.89296 46.5215V46.968Z" fill="#E5DCD3"/>
<path d="M0.89296 49.343L49.8078 0.90564H49.3537L0.89296 48.8965V49.343Z" fill="#E5DCD3"/>
<path d="M0.89296 51.718L52.2062 0.90564H51.7521L0.89296 51.2715V51.718Z" fill="#E5DCD3"/>
<path d="M0.89296 54.093L54.6046 0.90564H54.1505L0.89296 53.6465V54.093Z" fill="#E5DCD3"/>
<path d="M0.89296 56.468L57.0031 0.90564H56.549L0.89296 56.0215V56.468Z" fill="#E5DCD3"/>
<path d="M0.89296 58.843L59.4015 0.90564H58.9474L0.89296 58.3965V58.843Z" fill="#E5DCD3"/>
<path d="M0.89296 61.218L61.7999 0.90564H61.3458L0.89296 60.7715V61.218Z" fill="#E5DCD3"/>
<path d="M0.89296 63.593L64.1983 0.90564H63.7442L0.89296 63.1465V63.593Z" fill="#E5DCD3"/>
<path d="M0.89296 65.968L66.5967 0.90564H66.1426L0.89296 65.5215V65.968Z" fill="#E5DCD3"/>
<path d="M68.3292 1.11462L0.889008 67.8965V68.343L68.6138 1.28246C68.5153 1.23287 68.4202 1.1768 68.3292 1.11462Z" fill="#E5DCD3"/>
<path d="M70.3023 1.53589L0.889008 70.2716V70.7181L70.4878 1.79872C70.4205 1.71498 70.3586 1.6272 70.3023 1.53589Z" fill="#E5DCD3"/>
<path d="M71.7573 2.5998L71.6486 2.57764L0.889008 72.6465V73.093L71.8597 2.81514C71.8245 2.74547 71.7893 2.67264 71.7573 2.5998Z" fill="#E5DCD3"/>
<path d="M73.0557 3.89185C72.9764 3.8628 72.8994 3.82787 72.8254 3.78735L0.889008 75.0215V75.468L73.0397 4.02485C73.0429 3.98052 73.0493 3.93619 73.0557 3.89185Z" fill="#E5DCD3"/>
<path d="M73.3371 5.65564L0.889008 77.3965V77.843L73.5034 5.94064C73.4407 5.85 73.3851 5.75472 73.3371 5.65564Z" fill="#E5DCD3"/>
<path d="M74.4404 6.93811L0.892227 79.7714V80.2179L74.4404 7.38461V6.93811Z" fill="#E5DCD3"/>
<path d="M74.4404 9.31311L0.892227 82.1464V82.5929L74.4404 9.75961V9.31311Z" fill="#E5DCD3"/>
<path d="M2.63506 83.2389L74.4404 12.1346V11.6881L2.18416 83.2389H2.63506Z" fill="#E5DCD3"/>
<path d="M5.03347 83.2389L74.4404 14.5096V14.0631L4.58257 83.2389H5.03347Z" fill="#E5DCD3"/>
<path d="M7.43507 83.2389L74.4404 16.8846V16.4381L6.98097 83.2389H7.43507Z" fill="#E5DCD3"/>
<path d="M9.83349 83.2391L74.4404 19.2597V18.8132L9.37939 83.2391H9.83349Z" fill="#E5DCD3"/>
<path d="M12.2287 83.2389L74.4403 21.6346V21.1881L11.7778 83.2389H12.2287Z" fill="#E5DCD3"/>
<path d="M14.6271 83.2389L74.4403 24.0096V23.5631L14.1762 83.2389H14.6271Z" fill="#E5DCD3"/>
<path d="M17.0255 83.2389L74.4404 26.3846V25.9381L16.5746 83.2389H17.0255Z" fill="#E5DCD3"/>
<path d="M19.4239 83.2389L74.4403 28.7596V28.3131L18.973 83.2389H19.4239Z" fill="#E5DCD3"/>
<path d="M21.8256 83.239L74.4404 31.1347V30.6882L21.3715 83.239H21.8256Z" fill="#E5DCD3"/>
<path d="M24.224 83.2389L74.4404 33.5096V33.0631L23.7699 83.2389H24.224Z" fill="#E5DCD3"/>
<path d="M26.6224 83.239L74.4404 35.8846V35.4381L26.1683 83.239H26.6224Z" fill="#E5DCD3"/>
<path d="M29.0208 83.2389L74.4404 38.2596V37.8131L28.5667 83.2389H29.0208Z" fill="#E5DCD3"/>
<path d="M31.4192 83.2389L74.4404 40.6346V40.1881L30.9651 83.2389H31.4192Z" fill="#E5DCD3"/>
<path d="M33.8176 83.2389L74.4403 43.0096V42.5631L33.3635 83.2389H33.8176Z" fill="#E5DCD3"/>
<path d="M36.216 83.2389L74.4403 45.3846V44.9381L35.7619 83.2389H36.216Z" fill="#E5DCD3"/>
<path d="M38.6145 83.2389L74.4403 47.7596V47.3131L38.1604 83.2389H38.6145Z" fill="#E5DCD3"/>
<path d="M41.0129 83.2389L74.4404 50.1346V49.6881L40.5588 83.2389H41.0129Z" fill="#E5DCD3"/>
<path d="M43.4113 83.2389L74.4404 52.5096V52.0631L42.9572 83.2389H43.4113Z" fill="#E5DCD3"/>
<path d="M45.8097 83.239L74.4404 54.8847V54.4382L45.3556 83.239H45.8097Z" fill="#E5DCD3"/>
<path d="M48.2081 83.2389L74.4404 57.2596V56.8131L47.754 83.2389H48.2081Z" fill="#E5DCD3"/>
<path d="M50.6065 83.2389L74.4404 59.6346V59.1881L50.1524 83.2389H50.6065Z" fill="#E5DCD3"/>
<path d="M53.0049 83.2389L74.4404 62.0096V61.5631L52.5508 83.2389H53.0049Z" fill="#E5DCD3"/>
<path d="M55.4033 83.2389L74.4404 64.3846V63.9381L54.9492 83.2389H55.4033Z" fill="#E5DCD3"/>
<path d="M57.8018 83.2391L74.4404 66.7597V66.3132L57.3477 83.2391H57.8018Z" fill="#E5DCD3"/>
<path d="M60.2002 83.2389L74.4404 69.1346V68.6881L59.7461 83.2389H60.2002Z" fill="#E5DCD3"/>
<path d="M62.5986 83.239L74.4404 71.5096V71.0631L62.1445 83.239H62.5986Z" fill="#E5DCD3"/>
<path d="M64.997 83.2389L74.4404 73.8846V73.4381L64.5429 83.2389H64.997Z" fill="#E5DCD3"/>
<path d="M67.3954 83.2389L74.4404 76.2596V75.8131L66.9413 83.2389H67.3954Z" fill="#E5DCD3"/>
<path d="M69.7938 83.2391L74.4404 78.6347V78.1882L69.3397 83.2391H69.7938Z" fill="#E5DCD3"/>
<path d="M72.1923 83.2389L74.4404 81.0096V80.5631L71.7382 83.2389H72.1923Z" fill="#E5DCD3"/>
</g>
</svg>
