<svg width="126" height="95" viewBox="0 0 126 95" fill="none" xmlns="http://www.w3.org/2000/svg">
<g opacity="0.2" clip-path="url(#clip0)">
<path d="M105.206 1.5834C106.93 1.58172 108.584 2.26331 109.805 3.4783C111.025 4.6933 111.713 6.34225 111.715 8.06262V70.3879C111.713 72.1055 111.028 73.752 109.81 74.9666C108.593 76.1811 106.943 76.8646 105.222 76.8671H20.8006C19.0786 76.8654 17.4276 76.1823 16.2098 74.9677C14.9919 73.7531 14.3065 72.106 14.304 70.3879V8.06262C14.3065 6.34499 14.9914 4.69844 16.2086 3.4839C17.4258 2.26935 19.076 1.58591 20.7974 1.5834H105.218H105.206ZM105.218 1.55492e-05H20.7974C19.736 -0.000400422 18.6849 0.207838 17.7042 0.612835C16.7235 1.01783 15.8324 1.61165 15.0817 2.36038C14.3311 3.1091 13.7356 3.99806 13.3293 4.97646C12.923 5.95487 12.7139 7.00356 12.7139 8.06262V70.3879C12.7139 71.4469 12.923 72.4956 13.3293 73.474C13.7356 74.4524 14.3311 75.3414 15.0817 76.0901C15.8324 76.8388 16.7235 77.4326 17.7042 77.8376C18.6849 78.2426 19.736 78.4509 20.7974 78.4505H105.218C106.28 78.4509 107.331 78.2426 108.312 77.8376C109.292 77.4326 110.183 76.8388 110.934 76.0901C111.685 75.3414 112.28 74.4524 112.687 73.474C113.093 72.4956 113.302 71.4469 113.302 70.3879V8.06262C113.302 7.00249 113.092 5.95277 112.685 4.97353C112.278 3.9943 111.682 3.10478 110.93 2.35589C110.178 1.607 109.285 1.01345 108.303 0.609194C107.321 0.204943 106.268 -0.0020664 105.206 1.55492e-05H105.218Z" fill="#E5DCD3"/>
<path d="M105.879 76.867V78.4504C110.068 78.4504 114.076 80.1763 117.171 83.3114L123.851 90.082C124.136 90.385 124.325 90.7648 124.395 91.1741C124.465 91.5834 124.413 92.0043 124.245 92.3843C124.139 92.679 123.947 92.9353 123.693 93.1199C123.44 93.3045 123.137 93.409 122.823 93.4198H3.17371C2.86128 93.4039 2.56053 93.2962 2.30925 93.1103C2.05796 92.9244 1.86737 92.6685 1.76141 92.3748C1.59368 91.9948 1.54156 91.5739 1.61153 91.1646C1.6815 90.7553 1.87046 90.3755 2.15495 90.0725L8.83564 83.3019C11.93 80.1668 15.9384 78.4409 20.1277 78.4409H105.879V76.8575V76.867ZM105.879 76.8575H20.1214C17.8001 76.8757 15.5059 77.3569 13.3738 78.2727C11.2416 79.1885 9.31449 80.5205 7.70579 82.1904L1.0251 88.9863C-1.09177 91.1175 0.288799 95.0032 3.17371 95.0032H122.823C125.702 95.0032 127.082 91.1207 124.965 88.9863L118.301 82.2157C116.692 80.5459 114.765 79.2139 112.633 78.298C110.5 77.3822 108.206 76.901 105.885 76.8829L105.879 76.8575Z" fill="#E5DCD3"/>
<path d="M13.8025 5.42144L18.0077 1.22546H17.538L13.8025 4.95275V5.42144Z" fill="#E5DCD3"/>
<path d="M13.8025 7.92952L20.5213 1.22546H20.0516L13.8025 7.46084V7.92952Z" fill="#E5DCD3"/>
<path d="M13.8025 10.4408L23.0349 1.22546H22.5652L13.8025 9.96892V10.4408Z" fill="#E5DCD3"/>
<path d="M13.8025 12.9489L25.5516 1.22546H25.0788L13.8025 12.477V12.9489Z" fill="#E5DCD3"/>
<path d="M13.8025 15.4569L28.0652 1.22546H27.5923L13.8025 14.9883V15.4569Z" fill="#E5DCD3"/>
<path d="M13.8025 17.965L30.5788 1.22546H30.1091L13.8025 17.4963V17.965Z" fill="#E5DCD3"/>
<path d="M13.8025 20.4763L33.0924 1.22546H32.6227L13.8025 20.0044V20.4763Z" fill="#E5DCD3"/>
<path d="M13.8025 22.9844L35.6092 1.22546H35.1363L13.8025 22.5125V22.9844Z" fill="#E5DCD3"/>
<path d="M13.8025 25.4924L38.1228 1.22546H37.6499L13.8025 25.0238V25.4924Z" fill="#E5DCD3"/>
<path d="M13.8025 28.0005L40.6364 1.22546H40.1666L13.8025 27.5318V28.0005Z" fill="#E5DCD3"/>
<path d="M13.8025 30.5086L43.1499 1.22546H42.6802L13.8025 30.0399V30.5086Z" fill="#E5DCD3"/>
<path d="M13.8025 33.0199L45.6635 1.22546H45.1938L13.8025 32.548V33.0199Z" fill="#E5DCD3"/>
<path d="M13.8025 35.5279L48.1803 1.22546H47.7074L13.8025 35.0561V35.5279Z" fill="#E5DCD3"/>
<path d="M13.8025 38.036L50.6939 1.22546H50.221L13.8025 37.5673V38.036Z" fill="#E5DCD3"/>
<path d="M13.8025 40.5441L53.2075 1.22546H52.7378L13.8025 40.0754V40.5441Z" fill="#E5DCD3"/>
<path d="M13.8025 43.0554L55.7211 1.22546H55.2513L13.8025 42.5835V43.0554Z" fill="#E5DCD3"/>
<path d="M13.8025 45.5634L58.2378 1.22546H57.7649L13.8025 45.0916V45.5634Z" fill="#E5DCD3"/>
<path d="M13.8025 48.0715L60.7514 1.22546H60.2785L13.8025 47.6028V48.0715Z" fill="#E5DCD3"/>
<path d="M13.8025 50.5796L63.265 1.22546H62.7953L13.8025 50.1109V50.5796Z" fill="#E5DCD3"/>
<path d="M13.8025 53.0877L65.7786 1.22546H65.3089L13.8025 52.619V53.0877Z" fill="#E5DCD3"/>
<path d="M13.8025 55.5989L68.2954 1.22546H67.8225L13.8025 55.1271V55.5989Z" fill="#E5DCD3"/>
<path d="M13.8025 58.107L70.8089 1.22546H70.336L13.8025 57.6352V58.107Z" fill="#E5DCD3"/>
<path d="M13.8025 60.6151L73.3225 1.22546H72.8496L13.8025 60.1464V60.6151Z" fill="#E5DCD3"/>
<path d="M13.8025 63.1232L75.8361 1.22546H75.3664L13.8025 62.6545V63.1232Z" fill="#E5DCD3"/>
<path d="M13.8025 65.6344L78.3497 1.22546H77.88L13.8025 65.1626V65.6344Z" fill="#E5DCD3"/>
<path d="M13.8025 68.1425L80.8665 1.22546H80.3936L13.8025 67.6707V68.1425Z" fill="#E5DCD3"/>
<path d="M13.8025 70.6506L83.3801 1.22546H82.9072L13.8025 70.1819V70.6506Z" fill="#E5DCD3"/>
<path d="M13.8025 73.1587L85.8937 1.22546H85.424L13.8025 72.69V73.1587Z" fill="#E5DCD3"/>
<path d="M14.8149 74.6597L88.4072 1.22546H87.9375L14.5991 74.4191C14.6772 74.4936 14.7493 74.5741 14.8149 74.6597Z" fill="#E5DCD3"/>
<path d="M15.9543 76.031L90.924 1.22546H90.4511L15.6306 75.879C15.7419 75.922 15.8501 75.9728 15.9543 76.031Z" fill="#E5DCD3"/>
<path d="M17.0556 77.437L93.4376 1.22546H92.9647L16.9255 77.0982C16.9762 77.2082 17.0197 77.3213 17.0556 77.437Z" fill="#E5DCD3"/>
<path d="M19.4645 77.5447L95.9512 1.22546H95.4815L18.9916 77.5447H19.4645Z" fill="#E5DCD3"/>
<path d="M21.978 77.5447L98.4648 1.22546H97.9951L21.5083 77.5447H21.978Z" fill="#E5DCD3"/>
<path d="M24.4916 77.5447L100.982 1.22546H100.509L24.0219 77.5447H24.4916Z" fill="#E5DCD3"/>
<path d="M27.0084 77.5447L103.495 1.22546H103.022L26.5355 77.5447H27.0084Z" fill="#E5DCD3"/>
<path d="M29.522 77.5447L106.009 1.22546H105.536L29.0491 77.5447H29.522Z" fill="#E5DCD3"/>
<path d="M107.51 1.76379L31.5659 77.5446H32.0356L107.669 2.0773C107.611 1.97597 107.557 1.87146 107.51 1.76379Z" fill="#E5DCD3"/>
<path d="M108.754 3.03052L34.0794 77.5447H34.5491L109.109 3.16669C108.988 3.13052 108.869 3.08499 108.754 3.03052Z" fill="#E5DCD3"/>
<path d="M110.144 4.15466L36.593 77.5446H37.0659L110.446 4.32567C110.341 4.27568 110.241 4.21854 110.144 4.15466Z" fill="#E5DCD3"/>
<path d="M111.341 5.46899L39.1066 77.5447H39.5795L111.341 5.94084V5.46899Z" fill="#E5DCD3"/>
<path d="M111.341 7.97705L41.6234 77.5447H42.0931L111.341 8.4489V7.97705Z" fill="#E5DCD3"/>
<path d="M111.341 10.4883L44.137 77.5447H44.6067L111.341 10.957V10.4883Z" fill="#E5DCD3"/>
<path d="M111.341 12.9963L46.6506 77.5446H47.1203L111.341 13.465V12.9963Z" fill="#E5DCD3"/>
<path d="M111.341 15.5044L49.1642 77.5446H49.637L111.341 15.9762V15.5044Z" fill="#E5DCD3"/>
<path d="M111.341 18.0125L51.6777 77.5446H52.1506L111.341 18.4843V18.0125Z" fill="#E5DCD3"/>
<path d="M111.341 20.5238L54.1945 77.5447H54.6642L111.341 20.9925V20.5238Z" fill="#E5DCD3"/>
<path d="M111.341 23.0319L56.7081 77.5447H57.1778L111.341 23.5005V23.0319Z" fill="#E5DCD3"/>
<path d="M111.341 25.5399L59.2217 77.5447H59.6946L111.341 26.0118V25.5399Z" fill="#E5DCD3"/>
<path d="M111.341 28.0481L61.7353 77.5448H62.2082L111.341 28.5199V28.0481Z" fill="#E5DCD3"/>
<path d="M111.341 30.5562L64.252 77.5447H64.7217L111.341 31.028V30.5562Z" fill="#E5DCD3"/>
<path d="M111.341 33.0673L66.7656 77.5446H67.2353L111.341 33.5359V33.0673Z" fill="#E5DCD3"/>
<path d="M111.341 35.5754L69.2792 77.5447H69.7521L111.341 36.0441V35.5754Z" fill="#E5DCD3"/>
<path d="M111.341 38.0835L71.7928 77.5446H72.2657L111.341 38.5553V38.0835Z" fill="#E5DCD3"/>
<path d="M111.341 40.5917L74.3064 77.5447H74.7793L111.341 41.0635V40.5917Z" fill="#E5DCD3"/>
<path d="M111.341 43.0997L76.8232 77.5447H77.2929L111.341 43.5716V43.0997Z" fill="#E5DCD3"/>
<path d="M111.341 45.611L79.3367 77.5447H79.8064L111.341 46.0796V45.611Z" fill="#E5DCD3"/>
<path d="M111.341 48.119L81.8503 77.5447H82.3232L111.341 48.5909V48.119Z" fill="#E5DCD3"/>
<path d="M111.341 50.6272L84.364 77.5448H84.8368L111.341 51.099V50.6272Z" fill="#E5DCD3"/>
<path d="M111.341 53.1353L86.8807 77.5447H87.3504L111.341 53.6071V53.1353Z" fill="#E5DCD3"/>
<path d="M111.341 55.6464L89.3943 77.5446H89.864L111.341 56.115V55.6464Z" fill="#E5DCD3"/>
<path d="M111.341 58.1545L91.9078 77.5447H92.3807L111.341 58.6232V58.1545Z" fill="#E5DCD3"/>
<path d="M111.341 60.6626L94.4214 77.5447H94.8943L111.341 61.1344V60.6626Z" fill="#E5DCD3"/>
<path d="M111.341 63.1708L96.9382 77.5447H97.4079L111.341 63.6426V63.1708Z" fill="#E5DCD3"/>
<path d="M111.341 65.6819L99.4518 77.5446H99.9215L111.341 66.1506V65.6819Z" fill="#E5DCD3"/>
<path d="M111.341 68.1901L101.965 77.5447H102.435L111.341 68.6587V68.1901Z" fill="#E5DCD3"/>
<path d="M111.341 70.6981L104.479 77.5447H104.952L111.341 71.17V70.6981Z" fill="#E5DCD3"/>
</g>
<defs>
<clipPath id="clip0">
<rect width="126" height="95" fill="white"/>
</clipPath>
</defs>
</svg>
