<svg width="204" height="54" viewBox="0 0 204 54" fill="none" xmlns="http://www.w3.org/2000/svg">
<path d="M10.2755 0H11.0408C17.1619 0 18.8565 2.51332 18.8565 5.58556V6.14408C18.8565 7.79158 18.0639 9.21591 15.6045 9.88621C18.474 10.5565 19.4029 12.0365 19.4029 13.684V14.2426C19.4029 17.3148 17.5993 19.8281 11.0408 19.8281H10.2755C6.96862 19.8281 3.38872 19.6326 0.273438 19.2696V0.558516C3.38872 0.195521 6.96862 0 10.2755 0ZM5.1923 4.71974V7.81962H10.0566C14.484 7.81962 14.484 7.09323 14.484 6.14408C14.484 5.22216 14.3473 4.46812 10.3846 4.46812C9.04561 4.46812 6.99588 4.55267 5.1923 4.71974ZM5.1923 12.2877V15.1084C6.99588 15.2758 9.01673 15.36 10.4668 15.36C14.8392 15.36 15.0304 14.606 15.0304 13.684C15.0304 12.9024 15.0304 12.2877 10.0566 12.2877H5.1923Z" fill="#292B28"/>
<path d="M43.9426 5.02688H31.3448V7.81946H41.2102V12.2876H31.3448V14.8009H43.9426V19.2694H26.4255V0.55835H43.9426V5.02688Z" fill="#292B28"/>
<path d="M50.6654 19.2694V0.55835H55.5843V14.8009H68.1825V19.2694H50.6654Z" fill="#292B28"/>
<path d="M74.9042 19.2694V0.55835H79.823V14.8009H92.4212V19.2694H74.9042Z" fill="#292B28"/>
<path d="M129.287 9.88621V18.9342C126.718 19.4928 123.931 19.8285 121.143 19.8285H120.16C111.797 19.8285 109.447 15.6953 109.447 10.6419V9.18665C109.447 4.13196 111.797 0 120.16 0H121.143C123.703 0.00393202 126.254 0.313292 128.741 0.92151V5.47418C126.062 4.72015 123.029 4.44089 121.007 4.44089C114.476 4.44089 114.476 6.73064 114.476 9.91467C114.476 13.0987 114.476 15.4161 121.007 15.4161C121.963 15.4161 123.111 15.3604 124.368 15.2486V9.88621H129.287Z" fill="#292B28"/>
<path d="M150.684 19.2696L147.023 13.4048C145.082 13.4048 143.251 13.4048 141.502 13.1255V19.2696H136.583V0.558516C139.698 0.195521 143.279 0 146.585 0H147.351C153.472 0 155.166 2.76412 155.166 6.14408V7.26111C155.166 9.60696 154.401 11.6455 152.051 12.6788L155.44 18.1526V19.2696H150.684ZM141.502 4.71974V8.68545C143.197 8.90861 144.863 8.93666 145.793 8.93666C150.165 8.93666 150.247 8.15457 150.247 6.39529C150.247 5.39004 150.22 4.46812 146.64 4.46812C145.383 4.46812 143.306 4.55267 141.502 4.71974Z" fill="#292B28"/>
<path d="M161.533 19.2694V18.1524L169.677 0.55835H174.596L182.74 18.1524V19.2694H178.313L176.726 15.6391H167.518L165.96 19.2694H161.533ZM174.924 11.4498L172.136 5.05452L169.349 11.4498H174.924Z" fill="#292B28"/>
<path d="M191.922 12.3164L184.761 1.67619V0.55835H189.598L194.38 8.32229L199.19 0.55835H204V1.67538L196.841 12.3164V19.2694H191.922V12.3164Z" fill="#292B28"/>
<path d="M13.2541 47.2523C13.2541 45.9398 12.1063 45.7443 8.93613 45.6605C6.14878 45.5768 0.0838117 45.3813 0.0838117 39.9355V39.5725C0.0838117 36.3613 2.10587 33.5122 9.0472 33.5122H10.031C12.4381 33.5141 14.8351 33.8239 17.1635 34.4341V39.0421C14.5129 38.3994 11.9151 38.0088 9.23842 38.0088C5.27608 38.0088 5.00267 38.9303 5.00267 39.5725C5.00267 40.914 6.20533 41.1087 9.29335 41.1924C11.8895 41.2481 18.175 41.4436 18.175 46.945V47.3084C18.175 50.492 16.1525 53.3403 9.1835 53.3403H8.19851C5.32897 53.3403 2.59613 53.0054 0 52.446V47.7551C2.95132 48.4254 6.25822 48.8722 9.04557 48.8722C12.9534 48.8722 13.2541 47.9507 13.2541 47.2523Z" fill="#292B28"/>
<path d="M42.7131 38.5393H30.1148V41.3319H39.9802V45.8005H30.1148V48.3138H42.7131V52.7819H25.196V34.0708H42.7131V38.5393Z" fill="#292B28"/>
<path d="M63.5366 52.7818L59.875 46.9174C57.9347 46.9174 56.1034 46.9174 54.3548 46.6382V52.7818H49.4351V34.0707C52.5504 33.7077 56.1307 33.5122 59.4372 33.5122H60.2025C66.324 33.5122 68.0181 36.2763 68.0181 39.6563V40.7733C68.0181 43.1192 67.2532 45.1577 64.9028 46.191L68.2919 51.6648V52.7818H63.5366ZM54.3548 38.232V42.1977C56.0489 42.4212 57.7158 42.4489 58.645 42.4489C63.0175 42.4489 63.0997 41.6672 63.0997 39.9075C63.0997 38.9023 63.0724 37.9807 59.4921 37.9807C58.2353 37.9807 56.1584 38.0645 54.3548 38.232Z" fill="#292B28"/>
<path d="M94.8274 34.0708V35.1882L86.6834 52.7819H81.7645L73.6205 35.1882V34.0708H78.0479L84.224 48.3138L90.4 34.0708H94.8274Z" fill="#292B28"/>
<path d="M106.086 34.0708V52.7819H101.167V34.0708H106.086Z" fill="#292B28"/>
<path d="M113.108 42.7006C113.108 37.6455 115.267 33.5139 123.001 33.5139H123.984C126.364 33.5175 128.734 33.8274 131.035 34.4358V38.9885C128.521 38.2345 125.705 37.9552 123.848 37.9552C118.136 37.9552 118.136 40.2454 118.136 43.429C118.136 46.6126 118.136 48.9304 123.848 48.9304C125.706 48.9304 128.521 48.6235 131.035 47.8695V52.4494C128.794 53.0079 126.444 53.3437 123.984 53.3437H123.001C115.267 53.3437 113.108 49.2105 113.108 44.157V42.7006Z" fill="#292B28"/>
<path d="M155.03 38.5393H142.432V41.3319H152.297V45.8005H142.432V48.3138H155.03V52.7819H137.513V34.0708H155.03V38.5393Z" fill="#292B28"/>
</svg>
