<svg width="1920" height="791" viewBox="0 0 1920 791" fill="none" xmlns="http://www.w3.org/2000/svg">
<mask id="mask0" mask-type="alpha" maskUnits="userSpaceOnUse" x="0" y="0" width="1920" height="791">
<rect width="1920" height="791" fill="#1B1B1B"/>
</mask>
<g mask="url(#mask0)">
<g opacity="0.2">
<rect x="1152.82" y="-149.964" width="386.679" height="559.562" rx="193.339" stroke="#767676"/>
<rect x="378.179" y="970.161" width="386.679" height="559.562" rx="193.339" transform="rotate(-180 378.179 970.161)" stroke="#767676"/>
<rect x="379.631" y="-149.964" width="386.679" height="559.562" rx="193.339" stroke="#767676"/>
<rect x="1151.37" y="970.161" width="386.679" height="559.562" rx="193.339" transform="rotate(-180 1151.37 970.161)" stroke="#767676"/>
<rect x="766.226" y="-149.964" width="386.679" height="559.562" rx="193.339" stroke="#767676"/>
<rect x="764.774" y="970.161" width="386.679" height="559.562" rx="193.339" transform="rotate(-180 764.774 970.161)" stroke="#767676"/>
<rect x="-6.96466" y="-151.5" width="386.679" height="559.562" rx="193.339" stroke="#767676"/>
<rect x="1537.96" y="970.161" width="386.679" height="559.562" rx="193.339" transform="rotate(-180 1537.96 970.161)" stroke="#767676"/>
<rect x="1152.82" y="25.5388" width="386.679" height="384.059" rx="192.03" stroke="#767676"/>
<rect x="378.179" y="794.658" width="386.679" height="384.059" rx="192.03" transform="rotate(-180 378.179 794.658)" stroke="#767676"/>
<rect x="379.631" y="25.5388" width="386.679" height="384.059" rx="192.03" stroke="#767676"/>
<rect x="1151.37" y="794.658" width="386.679" height="384.059" rx="192.03" transform="rotate(-180 1151.37 794.658)" stroke="#767676"/>
<line x1="-9" y1="603.438" x2="1533.86" y2="603.438" stroke="#767676"/>
</g>
</g>
</svg>
