<svg width="50" height="95" viewBox="0 0 50 95" fill="none" xmlns="http://www.w3.org/2000/svg">
<path d="M25.3178 86.45C25.7136 86.4494 26.1006 86.5652 26.43 86.7828C26.7593 87.0004 27.0161 87.31 27.1678 87.6723C27.3196 88.0347 27.3594 88.4335 27.2824 88.8183C27.2053 89.2032 27.0148 89.5567 26.735 89.8341C26.4551 90.1115 26.0985 90.3004 25.7103 90.3768C25.3222 90.4532 24.9198 90.4136 24.5543 90.2632C24.1888 90.1128 23.8765 89.8582 23.6571 89.5317C23.4376 89.2052 23.3208 88.8215 23.3214 88.4292C23.3222 87.9045 23.5329 87.4016 23.9071 87.0307C24.2813 86.6597 24.7886 86.4509 25.3178 86.45ZM25.3178 84.8667C24.6063 84.8667 23.9108 85.0759 23.3192 85.4679C22.7277 85.8598 22.2667 86.4169 21.9946 87.0686C21.7224 87.7203 21.6514 88.4374 21.7904 89.1292C21.9295 89.8209 22.2723 90.4563 22.7757 90.9548C23.279 91.4533 23.9202 91.7927 24.6181 91.9299C25.316 92.0671 26.0393 91.9961 26.6965 91.7257C27.3536 91.4553 27.9151 90.9978 28.31 90.411C28.7048 89.8243 28.9152 89.1346 28.9146 88.4292C28.9146 87.9611 28.8215 87.4976 28.6407 87.0652C28.4599 86.6327 28.195 86.2399 27.8609 85.909C27.5269 85.5782 27.1304 85.3158 26.694 85.137C26.2576 84.9581 25.79 84.8663 25.3178 84.8667Z" fill="#E5DCD3"/>
<path d="M41.8642 1.58333C43.5973 1.58501 45.2589 2.26805 46.4847 3.48265C47.7105 4.69724 48.4003 6.34422 48.4029 8.06233V86.9377C48.4003 88.6558 47.7105 90.3028 46.4847 91.5173C45.2589 92.7319 43.5973 93.415 41.8642 93.4167H8.13263C6.40008 93.4142 4.73923 92.7307 3.51414 91.5162C2.28905 90.3017 1.59967 88.6552 1.59714 86.9377V8.06233C1.59967 6.34477 2.28905 4.69827 3.51414 3.48376C4.73923 2.26926 6.40008 1.58585 8.13263 1.58333H41.8642ZM41.8642 6.21948e-07H8.13263C5.97572 6.21948e-07 3.90715 0.849423 2.38199 2.3614C0.856828 3.87338 0 5.92407 0 8.06233L0 86.9377C0 89.0759 0.856828 91.1266 2.38199 92.6386C3.90715 94.1506 5.97572 95 8.13263 95H41.8642C42.9324 95.0004 43.9903 94.7922 44.9774 94.3872C45.9644 93.9822 46.8614 93.3884 47.6169 92.6397C48.3724 91.891 48.9717 91.0021 49.3806 90.0237C49.7895 89.0453 50 87.9967 50 86.9377V8.06233C50 7.00331 49.7895 5.95465 49.3806 4.97628C48.9717 3.99791 48.3724 3.10898 47.6169 2.36028C46.8614 1.61159 45.9644 1.01778 44.9774 0.6128C43.9903 0.207816 42.9324 -0.000415335 41.8642 6.21948e-07Z" fill="#E5DCD3"/>
<path d="M1.39589 7.53661L7.44905 1.53894H6.99546L1.39589 7.09011V7.53661Z" fill="#E5DCD3"/>
<path d="M1.39589 9.91161L9.84475 1.53894H9.39117L1.39589 9.46511V9.91161Z" fill="#E5DCD3"/>
<path d="M1.39589 12.2866L12.2405 1.53894H11.7869L1.39589 11.8401V12.2866Z" fill="#E5DCD3"/>
<path d="M1.39589 14.6616L14.6362 1.53894H14.1826L1.39589 14.2151V14.6616Z" fill="#E5DCD3"/>
<path d="M1.39589 17.0366L17.0319 1.53894H16.5783L1.39589 16.5901V17.0366Z" fill="#E5DCD3"/>
<path d="M1.39589 19.4116L19.4276 1.53894H18.974L1.39589 18.9651V19.4116Z" fill="#E5DCD3"/>
<path d="M1.39589 21.7866L21.8233 1.53894H21.3697L1.39589 21.3401V21.7866Z" fill="#E5DCD3"/>
<path d="M1.39589 24.1616L24.219 1.53894H23.7654L1.39589 23.7151V24.1616Z" fill="#E5DCD3"/>
<path d="M1.39589 26.5366L26.6147 1.53894H26.1611L1.39589 26.0901V26.5366Z" fill="#E5DCD3"/>
<path d="M1.39589 28.9116L29.0104 1.53894H28.5568L1.39589 28.4651V28.9116Z" fill="#E5DCD3"/>
<path d="M1.39589 31.2866L31.4061 1.53894H30.9525L1.39589 30.8401V31.2866Z" fill="#E5DCD3"/>
<path d="M1.39589 33.6616L33.8018 1.53894H33.3482L1.39589 33.2151V33.6616Z" fill="#E5DCD3"/>
<path d="M1.39589 36.0366L36.1975 1.53894H35.7439L1.39589 35.5901V36.0366Z" fill="#E5DCD3"/>
<path d="M1.39589 38.4116L38.5932 1.53894H38.1396L1.39589 37.9651V38.4116Z" fill="#E5DCD3"/>
<path d="M1.39589 40.7866L40.9889 1.53894H40.5354L1.39589 40.3401V40.7866Z" fill="#E5DCD3"/>
<path d="M42.8288 1.64343L1.39589 42.7151V43.1616L43.0269 1.89993C42.9552 1.81888 42.8891 1.73319 42.8288 1.64343Z" fill="#E5DCD3"/>
<path d="M44.2727 2.58398L1.39589 45.0901V45.5366L44.5953 2.71065L44.2727 2.58398Z" fill="#E5DCD3"/>
<path d="M45.6782 3.86963C45.6398 3.7968 45.6111 3.72713 45.5791 3.6543L1.39589 47.4651V47.9116L45.7356 3.95513L45.6782 3.86963Z" fill="#E5DCD3"/>
<path d="M46.4767 5.14893L1.39589 49.8401V50.2866L46.662 5.41176L46.4767 5.14893Z" fill="#E5DCD3"/>
<path d="M47.4669 6.54541L1.39589 52.2151V52.6616L47.649 6.81141L47.4669 6.54541Z" fill="#E5DCD3"/>
<path d="M48.3549 8.03687L1.39908 54.5869V55.0334L48.5019 8.34087C48.454 8.2332 48.406 8.1382 48.3549 8.03687Z" fill="#E5DCD3"/>
<path d="M49.0832 9.68994L1.39589 56.9651V57.4116L49.2174 10.0034L49.0832 9.68994Z" fill="#E5DCD3"/>
<path d="M49.7381 11.4189L1.39589 59.3401V59.7866L49.7381 11.8654V11.4189Z" fill="#E5DCD3"/>
<path d="M49.7381 13.7939L1.39589 61.7151V62.1616L49.7381 14.2404V13.7939Z" fill="#E5DCD3"/>
<path d="M49.7381 16.1689L1.39589 64.0901V64.5366L49.7381 16.6154V16.1689Z" fill="#E5DCD3"/>
<path d="M49.7381 18.5441L1.39589 66.4652V66.9117L49.7381 18.9906V18.5441Z" fill="#E5DCD3"/>
<path d="M49.7381 20.9189L1.39589 68.8401V69.2866L49.7381 21.3654V20.9189Z" fill="#E5DCD3"/>
<path d="M49.7381 23.2939L1.39589 71.2151V71.6616L49.7381 23.7404V23.2939Z" fill="#E5DCD3"/>
<path d="M49.7381 25.6689L1.39589 73.5901V74.0366L49.7381 26.1154V25.6689Z" fill="#E5DCD3"/>
<path d="M49.7381 28.0439L1.39589 75.9651V76.4116L49.7381 28.4904V28.0439Z" fill="#E5DCD3"/>
<path d="M49.7381 30.4191L1.39589 78.3402V78.7867L49.7381 30.8656V30.4191Z" fill="#E5DCD3"/>
<path d="M49.7381 32.7939L1.39589 80.7151V81.1616L49.7381 33.2404V32.7939Z" fill="#E5DCD3"/>
<path d="M49.7381 35.1689L1.39589 83.0901V83.5366L49.7381 35.6154V35.1689Z" fill="#E5DCD3"/>
<path d="M49.7381 37.5439L3.32205 83.5556H3.77564L49.7381 37.9904V37.5439Z" fill="#E5DCD3"/>
<path d="M49.7381 39.9189L5.71774 83.5556H6.17133L49.7381 40.3654V39.9189Z" fill="#E5DCD3"/>
<path d="M49.7381 42.2941L8.11345 83.5557H8.56704L49.7381 42.7406V42.2941Z" fill="#E5DCD3"/>
<path d="M49.7381 44.6689L10.5092 83.5556H10.9628L49.7381 45.1154V44.6689Z" fill="#E5DCD3"/>
<path d="M49.7381 47.0439L12.9049 83.5556H13.3585L49.7381 47.4904V47.0439Z" fill="#E5DCD3"/>
<path d="M49.7381 49.4189L15.3006 83.5556H15.7542L49.7381 49.8654V49.4189Z" fill="#E5DCD3"/>
<path d="M49.7381 51.7939L17.6963 83.5556H18.1499L49.7381 52.2404V51.7939Z" fill="#E5DCD3"/>
<path d="M49.7381 54.1691L20.092 83.5557H20.5456L49.7381 54.6156V54.1691Z" fill="#E5DCD3"/>
<path d="M49.7381 56.5439L22.4877 83.5556H22.9413L49.7381 56.9904V56.5439Z" fill="#E5DCD3"/>
<path d="M49.7381 58.9189L24.8834 83.5556H25.337L49.7381 59.3654V58.9189Z" fill="#E5DCD3"/>
<path d="M49.7381 61.2939L27.2791 83.5556H27.7327L49.7381 61.7404V61.2939Z" fill="#E5DCD3"/>
<path d="M49.7381 63.6689L29.6748 83.5556H30.1284L49.7381 64.1154V63.6689Z" fill="#E5DCD3"/>
<path d="M49.7381 66.0441L32.0705 83.5557H32.5241L49.7381 66.4906V66.0441Z" fill="#E5DCD3"/>
<path d="M49.7381 68.4189L34.4662 83.5556H34.9198L49.7381 68.8654V68.4189Z" fill="#E5DCD3"/>
<path d="M49.7381 70.7939L36.8619 83.5556H37.3155L49.7381 71.2404V70.7939Z" fill="#E5DCD3"/>
<path d="M49.7381 73.1689L39.2577 83.5556H39.7112L49.7381 73.6154V73.1689Z" fill="#E5DCD3"/>
<path d="M49.7381 75.5439L41.6534 83.5556H42.107L49.7381 75.9904V75.5439Z" fill="#E5DCD3"/>
<path d="M49.7381 77.9191L44.0491 83.5557H44.5027L49.7381 78.3656V77.9191Z" fill="#E5DCD3"/>
<path d="M49.7381 80.2939L46.4448 83.5556H46.8984L49.7381 80.7404V80.2939Z" fill="#E5DCD3"/>
</svg>
