<svg width="38" height="38" viewBox="0 0 38 38" fill="none" xmlns="http://www.w3.org/2000/svg">
<path d="M19 0C8.50695 0 0 8.50656 0 19C0 29.4934 8.50695 38 19 38C29.4931 38 38 29.4934 38 19C38 8.50656 29.4931 0 19 0ZM28.6378 21.0549C29.5234 21.9199 30.4603 22.7339 31.2552 23.6883C31.6074 24.1105 31.9394 24.547 32.1921 25.038C32.5529 25.7381 32.2271 26.5059 31.6005 26.5475L27.7079 26.5467C26.7026 26.6299 25.9026 26.2245 25.2281 25.5372C24.6897 24.9894 24.1902 24.4044 23.6716 23.838C23.4597 23.6055 23.2366 23.3866 22.9707 23.2144C22.44 22.8692 21.979 22.9749 21.675 23.5293C21.3651 24.0934 21.2944 24.7185 21.2648 25.3463C21.2225 26.2641 20.9457 26.504 20.0247 26.5471C18.0569 26.6393 16.1897 26.3407 14.4544 25.3486C12.9235 24.4736 11.7386 23.2385 10.7061 21.8402C8.69549 19.1143 7.15566 16.1225 5.77211 13.0448C5.46073 12.3517 5.68853 11.9808 6.4532 11.9664C7.72362 11.9419 8.99405 11.945 10.2645 11.9652C10.7815 11.9734 11.1236 12.2692 11.3223 12.7571C12.0088 14.4462 12.8504 16.0533 13.9051 17.5438C14.1861 17.9407 14.473 18.3364 14.8816 18.6167C15.3326 18.9261 15.6762 18.8239 15.8889 18.3205C16.0249 18.0005 16.0836 17.6584 16.1132 17.3156C16.2142 16.1412 16.2263 14.9671 16.0514 13.7974C15.9425 13.0654 15.5308 12.5927 14.8011 12.4543C14.4295 12.3839 14.4839 12.2463 14.6647 12.034C14.9784 11.6671 15.2723 11.44 15.8597 11.44L20.2576 11.4393C20.9507 11.5753 21.1062 11.8863 21.2003 12.5845L21.2042 17.4718C21.196 17.742 21.3399 18.5428 21.825 18.7197C22.2138 18.848 22.4703 18.5362 22.7028 18.2901C23.7575 17.1709 24.5089 15.85 25.1819 14.4828C25.4789 13.8798 25.735 13.2559 25.9838 12.6308C26.1689 12.1686 26.4566 11.9411 26.9783 11.9489L31.2133 11.954C31.338 11.954 31.4648 11.9551 31.5884 11.9765C32.3021 12.0986 32.4977 12.4057 32.2769 13.1019C31.9293 14.1959 31.2541 15.1071 30.594 16.0206C29.8865 16.9987 29.1319 17.9426 28.4314 18.925C27.7876 19.823 27.8385 20.2751 28.6378 21.0549Z" fill="#A7A18B"/>
</svg>
