<svg width="33" height="96" viewBox="0 0 33 96" fill="none" xmlns="http://www.w3.org/2000/svg">
<g opacity="0.2">
<path d="M24.2048 28.7021C25.9213 28.7038 27.5671 29.3864 28.7809 30.6002C29.9947 31.814 30.6773 33.4598 30.679 35.1763V59.9156C30.6765 61.6316 29.9935 63.2766 28.7798 64.4897C27.5661 65.7028 25.9208 66.385 24.2048 66.3867H8.05245C6.33699 66.3842 4.69251 65.7016 3.47949 64.4886C2.26648 63.2756 1.5839 61.6311 1.58139 59.9156V35.1763C1.58307 33.4603 2.26527 31.815 3.47838 30.6013C4.69148 29.3876 6.33644 28.7046 8.05245 28.7021H24.2048ZM24.2048 27.1207H8.05245C6.99472 27.1207 5.94735 27.3291 4.97018 27.734C3.99301 28.1389 3.10517 28.7323 2.35739 29.4804C1.60961 30.2284 1.01654 31.1165 0.612049 32.0938C0.207561 33.0712 -0.000414826 34.1186 6.21185e-07 35.1763V59.9156C6.21185e-07 62.0513 0.848381 64.0995 2.35851 65.6096C3.86864 67.1197 5.91681 67.9681 8.05245 67.9681H24.2048C25.2625 67.9685 26.31 67.7605 27.2873 67.356C28.2646 66.9516 29.1527 66.3585 29.9008 65.6107C30.6489 64.8629 31.2423 63.9751 31.6471 62.9979C32.052 62.0207 32.2604 60.9734 32.2604 59.9156V35.1763C32.2604 33.0399 31.4117 30.9909 29.901 29.4802C28.3902 27.9694 26.3413 27.1207 24.2048 27.1207Z" fill="#E5DCD3"/>
<path d="M16.8766 1.58139C18.5921 1.5839 20.2366 2.26648 21.4496 3.47949C22.6626 4.69251 23.3452 6.33699 23.3477 8.05245V27.0545H8.91275V8.05245C8.91526 6.33699 9.59784 4.69251 10.8109 3.47949C12.0239 2.26648 13.6683 1.5839 15.3838 1.58139H16.8766ZM16.8766 0H15.3838C13.2482 0 11.2 0.848381 9.68987 2.35851C8.17974 3.86864 7.33136 5.91681 7.33136 8.05245V28.6359H24.9291V8.05245C24.9291 5.91681 24.0807 3.86864 22.5706 2.35851C21.0605 0.848381 19.0123 0 16.8766 0V0Z" fill="#E5DCD3"/>
<path d="M23.3477 68.019V87.021C23.346 88.737 22.6638 90.3823 21.4507 91.596C20.2376 92.8097 18.5927 93.4927 16.8766 93.4952H15.3838C13.6678 93.4927 12.0228 92.8097 10.8097 91.596C9.59663 90.3823 8.91443 88.737 8.91275 87.021V68.019H23.3477ZM24.9291 66.4376H7.33136V87.021C7.33095 88.0788 7.53892 89.1262 7.94341 90.1035C8.3479 91.0809 8.94097 91.9689 9.68875 92.717C10.4365 93.4651 11.3244 94.0585 12.3015 94.4634C13.2787 94.8683 14.3261 95.0766 15.3838 95.0766H16.8766C17.9344 95.0766 18.9817 94.8683 19.9589 94.4634C20.9361 94.0585 21.8239 93.4651 22.5717 92.717C23.3195 91.9689 23.9126 91.0809 24.317 90.1035C24.7215 89.1262 24.9295 88.0788 24.9291 87.021V66.4376Z" fill="#E5DCD3"/>
<path d="M1.29041 33.3233L7.20165 27.469H6.7557L1.29041 32.8805V33.3233Z" fill="#E5DCD3"/>
<path d="M1.29041 35.6701L9.57374 27.469H9.12779L1.29041 35.2273V35.6701Z" fill="#E5DCD3"/>
<path d="M1.29041 38.0169L11.9458 27.469H11.4999L1.29041 37.5773V38.0169Z" fill="#E5DCD3"/>
<path d="M1.29041 40.3668L14.3179 27.469H13.872L1.29041 39.924V40.3668Z" fill="#E5DCD3"/>
<path d="M1.29041 42.7136L16.69 27.469H16.2441L1.29041 42.2708V42.7136Z" fill="#E5DCD3"/>
<path d="M1.29041 45.0636L19.0621 27.469H18.6161L1.29041 44.6208V45.0636Z" fill="#E5DCD3"/>
<path d="M1.29041 47.4103L21.4342 27.469H20.9882L1.29041 46.9676V47.4103Z" fill="#E5DCD3"/>
<path d="M1.29041 49.7571L23.8094 27.469H23.3603L1.29041 49.3175V49.7571Z" fill="#E5DCD3"/>
<path d="M25.9064 27.469H25.7324L1.29041 51.6643V52.1071L25.9759 27.6714C25.9506 27.605 25.9348 27.5386 25.9064 27.469Z" fill="#E5DCD3"/>
<path d="M26.8109 28.7499L1.29041 54.011V54.4538L27.0861 28.9207C26.9899 28.8712 26.8979 28.8141 26.8109 28.7499Z" fill="#E5DCD3"/>
<path d="M28.7465 29.1797L1.29041 56.3607V56.8034L28.8889 29.4833C28.8363 29.3846 28.7888 29.2832 28.7465 29.1797Z" fill="#E5DCD3"/>
<path d="M30.0464 30.5047C29.9832 30.4794 29.9199 30.4541 29.863 30.4257L1.29041 58.7073V59.1437L30.0464 30.6945C30.0464 30.6312 30.0464 30.568 30.0464 30.5047Z" fill="#E5DCD3"/>
<path d="M30.4418 32.2002L1.29041 61.0416V61.4844L30.6252 32.4469C30.5598 32.3679 30.4986 32.2856 30.4418 32.2002Z" fill="#E5DCD3"/>
<path d="M31.495 33.507L1.29041 63.4048V63.8475L31.495 33.9497V33.507Z" fill="#E5DCD3"/>
<path d="M2.45746 64.5968C2.53417 64.6677 2.60702 64.7426 2.67569 64.8213L31.495 36.2962V35.8534L2.45746 64.5968Z" fill="#E5DCD3"/>
<path d="M3.70361 65.7099C3.81142 65.7408 3.91708 65.7789 4.01989 65.8237L31.4792 38.6428V38.2031L3.70361 65.7099Z" fill="#E5DCD3"/>
<path d="M5.06042 66.735C5.11874 66.8278 5.17154 66.9239 5.21856 67.0229L31.4981 41.009V40.5662L5.06042 66.735Z" fill="#E5DCD3"/>
<path d="M31.495 42.8966L6.82214 67.3196H7.2681L31.495 43.3394V42.8966Z" fill="#E5DCD3"/>
<path d="M31.495 45.2471L9.19421 67.3201H9.64017L31.495 45.6899V45.2471Z" fill="#E5DCD3"/>
<path d="M31.495 47.5935L11.5663 67.3198H12.0122L31.495 48.0363V47.5935Z" fill="#E5DCD3"/>
<path d="M31.495 49.9437L13.9384 67.3201H14.3843L31.495 50.3834V49.9437Z" fill="#E5DCD3"/>
<path d="M31.495 52.2902L16.3105 67.3197H16.7564L31.495 52.7329V52.2902Z" fill="#E5DCD3"/>
<path d="M31.495 54.6372L18.6826 67.32H19.1285L31.495 55.08V54.6372Z" fill="#E5DCD3"/>
<path d="M31.495 56.9872L21.0546 67.32H21.5006L31.495 57.43V56.9872Z" fill="#E5DCD3"/>
<path d="M31.495 59.3336L23.4267 67.3196H23.8727L31.495 59.7764V59.3336Z" fill="#E5DCD3"/>
<path d="M31.495 61.6838L25.7988 67.3199H26.2448L31.495 62.1235V61.6838Z" fill="#E5DCD3"/>
</g>
</svg>
